<svg xmlns="http://www.w3.org/2000/svg" viewBox="0 0 64 64" role="img" aria-label="Finish flag">
  <rect width="64" height="64" rx="12" fill="#1a1d27"/>
  <rect x="14" y="12" width="3" height="42" rx="1.5" fill="#94a3b8"/>
  <g fill="#e8e6f0">
    <rect x="17" y="14" width="8" height="7"/>
    <rect x="33" y="14" width="8" height="7"/>
    <rect x="25" y="21" width="8" height="7"/>
    <rect x="41" y="21" width="8" height="7"/>
    <rect x="17" y="28" width="8" height="7"/>
    <rect x="33" y="28" width="8" height="7"/>
  </g>
  <g fill="#0f1117">
    <rect x="25" y="14" width="8" height="7"/>
    <rect x="41" y="14" width="8" height="7"/>
    <rect x="17" y="21" width="8" height="7"/>
    <rect x="33" y="21" width="8" height="7"/>
    <rect x="25" y="28" width="8" height="7"/>
    <rect x="41" y="28" width="8" height="7"/>
  </g>
  <rect x="17" y="14" width="32" height="21" fill="none" stroke="#a78bfa" stroke-width="1.5"/>
</svg>
