<svg xmlns="http://www.w3.org/2000/svg" viewBox="0 0 64 64" role="img" aria-label="Horseshoe">
  <rect width="64" height="64" rx="12" fill="#1a1d27"/>
  <path d="M20 18c0-8 8-12 12-12s12 4 12 12v22c0 4-3 7-6 7s-6-3-6-7V28c0-2-1-4-4-4s-4 2-4 4v14c0 4-3 7-6 7s-6-3-6-7V18z"
    fill="none" stroke="#fbbf24" stroke-width="5" stroke-linecap="round"/>
  <circle cx="22" cy="40" r="1.5" fill="#94a3b8"/>
  <circle cx="42" cy="40" r="1.5" fill="#94a3b8"/>
  <circle cx="22" cy="28" r="1.5" fill="#94a3b8"/>
  <circle cx="42" cy="28" r="1.5" fill="#94a3b8"/>
</svg>
