<svg xmlns="http://www.w3.org/2000/svg" viewBox="0 0 64 64" role="img" aria-label="Lava lamp">
  <rect width="64" height="64" rx="12" fill="#1a1d27"/>
  <ellipse cx="32" cy="52" rx="12" ry="4" fill="#475569"/>
  <rect x="24" y="46" width="16" height="6" rx="2" fill="#64748b"/>
  <path d="M26 46c-2-8-2-16 0-24 1-4 4-8 6-8s5 4 6 8c2 8 2 16 0 24z" fill="#38bdf8" opacity="0.35"/>
  <path d="M26 46c-2-8-2-16 0-24 1-4 4-8 6-8s5 4 6 8c2 8 2 16 0 24z" fill="none" stroke="#a78bfa" stroke-width="2"/>
  <circle cx="30" cy="28" r="4" fill="#fb7185"/>
  <circle cx="36" cy="36" r="3.5" fill="#fbbf24"/>
  <circle cx="31" cy="40" r="3" fill="#34d399"/>
</svg>
